<svg xmlns="http://www.w3.org/2000/svg" viewBox="0 0 1280 1131"><path d="M350.5 1a86.2 86.2 0 00-65.3 48.5 170 170 0 00-15.4 53 579.1 579.1 0 000 78c5.8 53.3 19.3 112 40.2 175.8a612 612 0 017 22.4c0 .6-1.7 1.4-3.7 1.7-12.9 2.3-40.9 8.5-59.8 13.2-59.9 14.9-105.1 30.7-146 50.9-32 15.8-54.4 30.7-72 48-56 54.9-45 119.3 28.9 169.4 52.9 35.8 137.2 66.4 238.6 86.6 7.4 1.5 13.6 2.8 13.8 3 .2.2-3.3 11.2-7.7 24.6-22.7 69-35.9 128.7-40.2 182.3a422 422 0 002 76.1c9.3 52.6 30.8 81.7 68.6 93.1 8 2.4 10.7 2.7 24.5 2.8 12.9.1 17.3-.3 26-2.2 46.5-10.5 96.4-40.1 156-92.7 18.8-16.6 58.4-56.3 77.9-78.3 8.4-9.4 15.7-17.2 16.1-17.2.4 0 7.7 7.8 16.1 17.3 19.1 21.4 58.9 61.5 76.9 77.3 55.9 49.3 104 79.3 145.7 90.8a116 116 0 0036.8 5.1c17.1 0 24.9-1.7 39-8.5 30-14.5 47.1-42.5 55.2-90.5 1.5-9.1 1.8-16.5 1.8-43a350 350 0 00-5.1-70.5A921 921 0 00970 773.1a429.9 429.9 0 01-6.8-21.6c.2-.2 6.4-1.5 13.8-2.9 99-19.5 185.9-51 238.6-86.7 73.9-50.1 84.9-114.6 28.9-169.4-45.4-44.4-139-83.5-260-108.5l-21.3-4.5c-.1-.1 3-9.8 6.9-21.6a878.3 878.3 0 0040.1-172.4c2-17.1 1.7-73.2-.5-86-5.8-33.2-15.2-55.8-30.5-72.5a97.7 97.7 0 00-26.7-19.5C900-15 827.3 14 735.5 94a1316.2 1316.2 0 00-79.9 80.2A241.2 241.2 0 01640 191a1376.6 1376.6 0 00-95.5-97c-54-47.3-104-78-145-89-16.5-4.4-35.6-6-49-4zM380 34.5c57.2 9.3 140.9 72.3 227.4 171.2l10.7 12.2-13.5 16.9c-25.4 32-58.5 77.4-80 109.7l-6.6 10.1-17.8 1.3c-39.9 2.8-93.8 8.9-132.5 15-15.9 2.4-17.9 2.6-18.6 1.2-.5-.9-4.3-12-8.4-24.6-49.1-149.9-53.8-263.4-12.6-301 13-11.8 29.4-15.6 51.9-12zm548.2-.1a46.7 46.7 0 0125.4 14A70.3 70.3 0 01971.4 79c18 54.3 6.2 150.1-32.9 269l-8.5 25.6-11.2-1.8A1821.5 1821.5 0 00766.6 355h-4.2l-11.6-17.3c-22-32.7-50.5-71.6-75.5-103l-13.4-16.8 11.2-12.7A917 917 0 01790 91.9c56.9-44.1 105.6-64.4 138.2-57.5zM649.7 256.2a2073 2073 0 0168.6 92.8l1.6 2.5H640c-52.9 0-79.6-.3-79.2-1a1991 1991 0 0127.6-39c19.7-27.2 50.3-66.5 51.6-66.5.4 0 4.8 5.1 9.7 11.2zM735 385.8l8.5.7 11.8 18.5c16.5 25.8 40.7 66.5 55.2 92.5 14.9 26.8 35.8 66.6 35.8 68 0 1.4-21.1 41.5-35.8 68a2209.6 2209.6 0 01-55.2 92.5l-11.8 18.5-12.5.9a4601 4601 0 01-182 0l-12.4-.9-9.3-14.5a1987.3 1987.3 0 01-85.6-148l-8.6-16.4 7.1-13.6a1951.3 1951.3 0 0189.3-154.4L537 386l5.2-.1 22.8-.9c20-.9 157.2-.2 170 .8zm-240.2 4c-.1.4-6.1 10.1-13.1 21.5a2066.2 2066.2 0 00-61.3 107.4 62.4 62.4 0 01-5.5 9.3c-2.1 0-55.2-122-53.7-123.5 1.3-1.3 68.9-9.8 106.8-13.4 22.5-2.2 27.3-2.4 26.8-1.3zM810 391c43.3 4 106.2 11.8 107.9 13.5 1.4 1.5-28.6 72.7-46.3 110l-6.7 14-5.6-10.5A2153.4 2153.4 0 00785 389.4c0-.6 2.4-.5 25 1.6zm-474 37.7c14.7 37.9 30.8 74.9 50.5 116.4l9.7 20.2-9.3 19.1a1677.6 1677.6 0 00-50.4 115.1c-4.3 11-8.1 20.3-8.4 20.7-.3.4-9.1-1.1-19.6-3.2-99.9-20.1-181.8-50.2-229.6-84.6a188.7 188.7 0 01-31.5-29.7C24.8 572.6 29 544.3 60.7 514c36.9-35.4 108.5-67 204.8-90.6 16.7-4.1 59.1-13.2 62.1-13.3.6-.1 4.3 8.3 8.4 18.6zm644-13c110.9 23 198 58.7 239.3 98.3 31.3 30 35.7 57.1 14.2 87.5a182.3 182.3 0 01-32.4 30.9c-48.4 34.6-129.9 64.6-229.6 84.7a124.9 124.9 0 01-19.6 3.1c-.3-.4-4.1-9.7-8.4-20.7-14.1-36.1-32-76.9-50.4-115.1l-9.3-19.1 5.5-10.9a1817.4 1817.4 0 0061.6-141.6c1.2-3.2-1.8-3.5 29.1 2.9zm-562.6 191a2041 2041 0 0064.5 113.2 919 919 0 0113.1 21.8c0 2.1-130.5-12.9-132.8-15.2-.6-.6 4.4-13.9 15-39.3 12.2-29.5 36.8-84.1 37.9-84.2.3 0 1.3 1.7 2.3 3.7zm454.3 10c17.9 37.8 47.6 108.3 46.1 109.8-1.4 1.4-55.6 8.4-91.8 11.9-34.5 3.3-41 3.9-41 3.3 0-.3 4.4-7.6 9.8-16.4a2007 2007 0 0070-122.3c.2 0 3.3 6.2 6.9 13.7zM938.4 783c39.1 118.5 50.8 214.2 33 268.9a68.8 68.8 0 01-17.8 30.7c-13.7 13.6-29.5 17.8-53.6 13.9-57.1-9.3-139.2-71-226.9-170.7l-11.2-12.7 13.5-16.9c24.9-31.3 59.3-78.5 80-109.8l6.7-10.1 10.7-.7a1578.7 1578.7 0 00156.9-18.5c.1-.1 4 11.6 8.7 25.9zm-567.8-22.5c35.7 5.6 92.9 12.1 129.6 14.6l17.7 1.3 6.7 10c20.5 31 56.2 79.9 81.3 111.4l12.2 15.3-11.2 12.7c-88.3 100.2-169.7 161.4-227.3 170.7-24 3.9-39.6-.3-53.6-14.4a74.3 74.3 0 01-18.4-33.1c-14.5-48.2-6.7-129.4 22-228a1763 1763 0 0120.1-62.3c.7-1.1 3.9-.9 20.9 1.8zm348.6 20c-.9 1.7-14 20.2-23.5 33.5-19 26.4-54.3 72-55.7 72-2.2 0-64.9-83.3-78.3-104l-1.6-2.5H640c52.9 0 79.6.3 79.2 1z"/><path d="M627.5 496.4a71.8 71.8 0 00-54.2 47 52.4 52.4 0 00-2.7 21.6c-.1 12.3.2 14.3 2.8 22.4a72 72 0 0049.6 46.3 84.6 84.6 0 0034 0 74.3 74.3 0 0042.2-30.6 71.4 71.4 0 003.1-70.1 76.5 76.5 0 00-30.3-29.9 99.9 99.9 0 00-14.5-5.6 80.2 80.2 0 00-30-1.1z"/></svg>